PathFileType	4	(X/Y/Z)	C:/Users/beibeiliu/ov580/test_trc/User2\sequence.26_training_dense_right.trc
DataRate	CameraRate	NumFrames	NumMarkers	Units	OrigDataRate	OrigDataStartFrame	OrigNumFrames
120	120	24	19	mm	120	82	109
Frame#	Time	ThumbCMC			ThumbMCP			ThumbIP			ThumbTip			IndexMCP			IndexPIP			IndexTip			MiddleMCP			MiddlePIP			MiddleTip			RingMCP			RingPIP			RingTip			PinkyMCP			PinkyPIP			PinkyTip			BackHand1			BackHand2			BackHand3	
		X0	Y0	Z0	X1	Y1	Z1	X2	Y2	Z2	X3	Y3	Z3	X4	Y4	Z4	X5	Y5	Z5	X6	Y6	Z6	X7	Y7	Z7	X8	Y8	Z8	X9	Y9	Z9	X10	Y10	Z10	X11	Y11	Z11	X12	Y12	Z12	X13	Y13	Z13	X14	Y14	Z14	X15	Y15	Z15	X16	Y16	Z16	X17	Y17	Z17	X18	Y18	Z18	
81	0.675	53.9221	29.7157	-21.0067	32.2149	34.3617	-40.6732	10.1481	40.8395	-64.2423	-5.16559	40.9627	-81.2202	72.4179	34.4094	-106.336	69.7125	33.2235	-132.829	69.7812	34.1084	-161.267	96.467	30.93	-112.063	93.2332	31.1361	-142.006	88.9391	36.4737	-169.693	124.473	11.6215	-102.915	126.44	7.98826	-129.26	134.82	2.7891	-155.986	135.036	-1.79086	-86.7238	140.538	-7.29322	-111.158	143.309	-7.16165	-135.068	120.078	23.0314	-42.5732	123.59	28.4713	-12.5372	91.954	38.3949	-33.174	
82	0.683333	58.6934	34.8856	-21.4436	39.4655	39.8713	-40.7069	19.4779	44.029	-67.373	0.75139	47.8269	-82.1773	71.1535	11.9586	-106.819	64.3818	8.03679	-129.003	62.1912	1.92096	-153.441	88.3278	5.0127	-109.134	80.2379	1.23722	-134.349	77.3659	-2.36292	-170.313	110.802	-18.8133	-102.481	107.433	-29.7333	-126.381	107.686	-40.3445	-148.706	121.14	-28.9921	-80.4701	120.552	-41.2494	-105.636	118.361	-45.2056	-127.847	121.214	4.10065	-49.2754	126.144	17.5002	-20.0406	95.0753	29.5669	-38.9464	
83	0.691667	81.4338	46.6478	-21.6938	61.7894	61.836	-43.9803	43.0878	69.1713	-67.9792	26.0063	77.1871	-84.1853	68.5835	12.0023	-101.024	54.5457	8.01063	-125.671	45.9088	1.61912	-149.699	79.6897	-5.04892	-105.116	65.3251	-10.5152	-129.095	55.1416	-15.6726	-158.273	87.0475	-29.8413	-92.8327	76.6335	-44.3488	-111.452	63.725	-54.5391	-138.292	93.2973	-44.6811	-76.7014	81.7109	-55.4399	-96.976	76.5147	-62.1561	-115.417	118.532	-10.3196	-47.7094	132.937	1.63436	-18.4073	108.876	26.9112	-41.9563	
84	0.7	107.896	59.1118	-28.1083	95.3556	75.1718	-50.7263	79.8401	92.5346	-78.059	67.0404	103.27	-90.9081	70.441	32.3564	-103.116	53.4897	26.0022	-122.626	40.2486	21.9717	-145.302	71.0611	9.75577	-101.44	52.8127	7.24194	-128.915	38.9315	1.18341	-154.763	62.4624	-17.4111	-89.7026	45.0679	-29.981	-101.356	25.497	-31.0862	-122.37	68.0317	-31.6779	-64.3739	48.907	-40.3741	-81.3915	35.3974	-41.7674	-100.849	107.009	-6.26661	-50.2304	128.853	-4.44833	-24.2602	117.674	24.9322	-46.2833	
85	0.708333	132.769	58.6676	-38.2053	130.327	78.8118	-59.8782	119.734	95.8567	-87.0952	116.684	114.313	-103.023	82.97	44.9202	-104.128	65.8133	47.3054	-125.674	48.5183	47.057	-148.446	71.5451	28.1355	-107.391	54.3551	28.5143	-126.525	36.888	30.4966	-156.343	48.3952	4.85507	-83.7067	30.6784	7.88841	-96.4474	5.80889	5.76054	-113.535	47.737	-3.41087	-63.5729	28.5517	-3.31401	-74.991	10.7803	-1.78614	-95.3061	101.032	0.0163861	-47.7343	122.548	-5.31454	-22.0135	127.163	21.9423	-47.3394	
86	0.716667	152.117	47.7538	-47.2183	159.692	65.9189	-68.2958	158.032	84.1386	-100.275	159.225	100.48	-114.559	96.0998	47.6171	-113.784	82.4996	54.6819	-131.175	62.1985	58.6422	-156.851	78.4341	34.7711	-110.033	62.6389	42.7514	-134.402	47.7124	49.7189	-162.434	47.8733	29.0244	-87.043	30.6247	38.1899	-101.518	9.61642	46.9168	-119.381	46.1065	24.8306	-63.9304	27.2028	32.6491	-78.6528	11.6598	35.2715	-93.5238	93.4903	7.5554	-50.2098	113.593	-6.74999	-25.456	128.473	15.9011	-55.5392	
87	0.725	160.667	36.5748	-47.5088	170.112	50.9264	-75.7793	176.825	67.932	-105.631	180.282	82.1214	-124.493	105.738	43.1628	-117.67	95.7579	52.068	-137.884	84.4265	59.1355	-162.901	87.2199	36.8992	-117.128	77.216	46.4429	-140.234	61.1532	50.5041	-165.966	57.0443	38.4589	-92.9597	38.03	49.3766	-105.748	21.702	60.5267	-124.452	49.3154	37.1387	-67.5358	34.2393	49.0514	-82.7251	14.9717	54.0971	-98.7923	93.5518	8.43798	-50.6263	109.283	-1.84646	-26.8817	130.967	11.5957	-53.6378	
88	0.733333	165.275	31.1681	-47.6197	178.694	44.0264	-75.5269	181.932	57.9139	-104.458	185.87	71.4525	-125.427	113.156	34.4665	-119.911	101.406	41.554	-145.664	91.8956	48.6492	-171.209	91.3048	26.7814	-119.987	83.0855	34.3393	-143.539	72.7193	38.0809	-174.105	64.8723	32.6679	-100.653	45.6287	42.2812	-115.659	24.5442	51.6115	-133.86	57.7279	31.2152	-74.6354	37.7165	41.8983	-90.4802	21.2354	47.115	-109.592	98.3491	7.42542	-57.196	113.322	-5.33518	-30.7288	135.809	6.10397	-57.4564	
89	0.741667	164.729	29.8766	-53.8466	176.32	43.8732	-76.1711	182.655	57.08	-108.548	185.428	70.14	-124.403	119.717	24.1237	-123.815	111.932	29.5766	-147.731	94.4625	29.5361	-174.364	99.2647	12.6095	-121.76	91.0868	17.6961	-151.418	80.2413	19.4406	-181.337	69.7022	13.2135	-105.393	50.4382	18.8715	-118.248	33.6797	25.9755	-141.276	58.9974	11.8842	-79.3814	45.2013	18.9576	-96.1971	28.7305	19.2702	-113.211	103.915	-6.26622	-55.7451	117.436	-14.3145	-30.4719	142.588	0.43681	-61.8374	
90	0.75	164.074	37.1176	-51.683	171.498	52.2987	-78.5753	174.933	66.2484	-110.23	178.927	81.6452	-126.346	126.219	19.4418	-128.451	113.019	19.7609	-149.508	103.233	19.967	-175.647	108.296	1.42944	-123.538	99.7876	5.36179	-153.736	90.3745	2.33584	-181.217	78.2125	-8.20304	-105.92	57.6332	-5.75517	-127.7	38.2957	-4.3471	-148.579	69.2033	-9.23711	-83.9969	49.3772	-9.22383	-101.444	38.0749	-9.80159	-119.836	114.684	-13.8493	-62.6992	133.078	-17.3252	-30.1155	150.669	1.85319	-62.4868	
91	0.758333	154.829	43.1755	-50.2939	161.989	62.1945	-77.131	160.698	77.7103	-102.053	163.441	93.2128	-121.902	127.294	17.1354	-127.475	118.809	18.2697	-155.005	109.332	14.359	-178.86	117.261	-1.51056	-127.277	109.371	-1.59861	-158.987	103.29	-5.73551	-185.994	91.2864	-20.5195	-111.913	71.4159	-27.2395	-131.224	57.2161	-27.6551	-152.599	80.482	-27.951	-86.6254	64.3347	-30.3778	-108.914	54.9406	-35.3353	-126.193	124.951	-18.696	-64.1157	140.366	-18.4655	-31.5131	154.258	8.83955	-58.5263	
92	0.766667	148.749	50.1102	-50.4874	148.373	66.5241	-72.8575	149.047	85.4097	-101.274	144.214	96.0451	-121.36	133.539	21.2373	-128.098	127.005	18.2866	-155.753	119.494	10.9326	-179.597	129.405	-1.9731	-128.478	122.947	-1.52193	-158.624	119.12	-11.4155	-184.205	109.213	-26.6956	-114.962	96.2815	-36.7029	-131.987	79.7039	-46.7798	-160.153	99.361	-39.5829	-94.4519	88.9524	-42.915	-110.795	80.7095	-52.5436	-134.239	138.001	-18.936	-63.0165	150.482	-15.9376	-29.8011	155.659	15.6863	-57.0621	
93	0.775	144.885	52.6435	-47.4385	142.891	73.2115	-69.79	140.741	85.9918	-103.739	135.813	102.104	-119.093	143.206	23.5851	-126.837	138.952	22.76	-152.803	134.934	11.569	-180.31	145.219	2.92654	-127.03	140.46	-3.85756	-159.881	141.013	-6.73475	-188.086	130.948	-28.8378	-117.878	122.24	-38.5076	-136.408	115.543	-45.8844	-161.845	124.114	-41.8716	-96.7379	116.223	-51.4131	-116.235	112.558	-59.6557	-139.587	153.329	-17.7289	-63.9355	161.735	-5.78863	-28.5036	163.335	21.8002	-58.5739	
94	0.783333	137.123	53.2671	-41.1157	132.158	73.6979	-64.2393	129.729	89.436	-98.9016	122.638	100.147	-118.952	154.398	29.3558	-125.386	153.89	28.7477	-153.146	154.41	27.7698	-177.948	162.81	11.7138	-127.202	161.983	9.05758	-158.414	167.319	6.99702	-187.414	158.959	-22.5513	-119.324	154.479	-32.9733	-139.23	154.648	-41.5001	-165.194	152.622	-34.3287	-97.5681	149.326	-44.0917	-121.707	152.419	-53.4109	-146.942	169.044	-8.32763	-61.566	172.208	-1.25621	-30.8897	166.952	33.6563	-50.3108	
95	0.791667	126.359	55.7478	-39.6615	116.792	74.616	-59.9503	111.456	91.0589	-93.9617	103.974	97.3554	-111.438	157.955	48.9777	-117.769	161.817	48.9377	-146.496	165.47	50.9466	-171.678	175.224	29.6761	-119.921	176.985	34.7823	-150.819	185.992	36.4666	-178.769	180.702	0.126748	-115.052	182.972	-8.87607	-138.615	188.755	-15.0071	-165.776	178.671	-17.6995	-99.2652	181.434	-27.0279	-124.646	186.508	-30.8906	-145.916	180.242	11.3806	-57.1142	178.056	13.4066	-25.2762	164.158	41.5713	-47.9954	
96	0.8	112.83	54.8298	-36.1188	102.369	68.3934	-58.6406	90.3863	85.098	-84.0524	80.6844	94.8449	-105.303	150.313	66.9502	-111.3	153.219	72.6194	-135.748	164.553	75.0253	-161.055	170.645	57.2819	-116.575	178.428	62.2017	-142.882	183.496	72.2785	-167.346	189.099	22.4866	-108.461	197.619	19.3022	-137.403	203.756	21.7218	-163.942	193.104	2.72046	-93.3428	196.378	3.58639	-122.227	207.676	2.67119	-139.784	176.752	28.513	-50.7156	171.797	28.5534	-21.1766	151.226	52.6116	-37.8528	
97	0.808333	97.9489	50.8628	-32.6046	85.9723	63.6085	-52.0236	67.859	81.548	-76.3726	60.263	88.2942	-99.4929	137.782	75.4207	-104.543	139.633	83.6858	-130.244	147.416	92.9162	-154.629	156.599	73.1665	-109.395	159.956	82.203	-134.06	168.23	96.0024	-161.287	183.264	43.007	-106.988	193.272	41.7639	-127.845	202.777	45.473	-155.395	187.238	23.8994	-90.4919	199.794	23.2154	-117.098	210.344	28.5283	-137.791	169.922	39.2101	-48.7303	163.539	37.1586	-17.0445	136.481	58.1376	-35.3999	
98	0.816667	84.5599	45.6624	-25.2844	67.6102	58.261	-44.1844	53.899	73.2066	-71.5361	40.0356	83.4003	-93.424	120.473	76.3672	-100.951	122.774	84.9853	-126.313	124.002	98.3702	-151.98	141.292	75.5007	-105.607	142.47	87.5863	-133.055	144.365	100.314	-155.249	167.703	49.1026	-100.936	176.283	51.0793	-125.145	184.448	56.3834	-151.55	178.396	28.2648	-86.5462	183.113	35.4928	-115.855	193.006	39.3776	-136.065	153.807	43.8831	-44.3775	151.961	37.6773	-11.7032	121.038	59.1675	-33.9052	
99	0.825	73.4639	40.5823	-23.5556	56.2125	49.6065	-42.8145	38.4899	64.8293	-70.9763	23.1237	72.1155	-90.2417	99.8535	66.9326	-101.273	100.148	73.5076	-125.811	105.034	83.2629	-154.881	120.599	67.3979	-106.22	122.38	74.2603	-132.451	122.718	88.3838	-159.333	151.544	42.9015	-103.781	161.583	42.7193	-128.017	169.06	46.7718	-153.718	165.166	25.0819	-88.931	172.024	25.6538	-113.964	177.124	34.06	-136.182	142.984	39.4837	-46.8904	142.831	35.9021	-11.8024	108.416	52.2853	-31.5829	
100	0.833333	65.45	31.9425	-21.883	43.6381	41.3194	-40.8558	24.6388	48.8582	-67.3311	13.623	52.885	-90.2962	88.945	48.9747	-104.766	85.365	53.3545	-132.132	88.4316	56.3935	-155.895	108.528	48.2159	-109.341	107.805	53.3666	-138.866	106.475	61.9694	-165.079	138.924	27.6422	-103.465	144.816	25.5075	-129.659	152.514	25.8027	-159.57	150.345	12.6447	-86.9561	154.336	11.5869	-112.248	164.084	12.4772	-136.775	129.611	32.9644	-46.1369	133.608	32.7703	-13.813	99.5103	47.1666	-32.7104	
101	0.841667	56.6845	29.0057	-22.8202	38.7079	32.2791	-42.3813	15.4817	39.5806	-69.5497	0.149195	38.4878	-82.9242	73.6205	33.7078	-107.406	71.0682	31.7139	-131.143	73.6401	31.8917	-160.282	96.9794	31.9714	-112.684	92.8024	31.1338	-138.135	91.3146	36.9773	-171.103	125.625	12.8751	-105.861	132.309	4.4479	-129.136	137.271	0.900351	-157.258	138.801	0.25337	-85.149	144.536	-6.12803	-112.832	151.619	-6.27256	-135.813	123.749	25.4857	-44.005	123.215	30.1662	-13.2212	93.2178	40.468	-34.4165	
102	0.85	55.9521	27.243	-19.0714	32.3526	32.1645	-36.9015	9.19404	36.1975	-65.2893	-4.24937	32.0298	-78.9175	69.6357	26.5114	-102.975	65.8773	22.2082	-128.527	64.3679	18.8612	-157.077	90.9388	24.4432	-109.157	86.4087	21.2334	-139.615	84.6785	21.7809	-172.522	121.178	3.71525	-101.209	124.103	-6.09115	-125.655	127.949	-14.1121	-153.029	134.225	-5.98637	-86.6118	138.224	-15.8746	-109.025	143.864	-20.8922	-131.59	118.619	24.7294	-48.8377	122.197	31.6638	-12.2499	89.855	39.2555	-33.1883	
103	0.858333	52.63	34.6194	-14.6086	32.0148	37.5284	-33.7252	10.3732	39.7449	-60.0779	-8.75641	40.4746	-78.643	67.2485	24.9932	-104.164	57.6548	20.1512	-129.832	52.9468	14.3037	-156.527	88.2435	21.34	-108.289	77.6467	17.7947	-137.803	72.9701	16.1144	-167.178	114.693	0.254567	-103.005	117.632	-12.7513	-122.694	118.823	-25.6729	-149.134	130.986	-10.3882	-85.6829	130.282	-20.2011	-106.171	133.608	-28.2201	-129.424	118.988	24.6314	-47.3445	120.237	34.6945	-13.8344	84.8513	44.0079	-32.394	
104	0.866667	57.536	39.2117	-12.6295	31.5454	50.5623	-32.04	11.7502	50.6716	-58.4804	-6.26543	50.6465	-72.1519	58.2026	26.1063	-98.9616	49.1051	18.2114	-126.127	46.5401	7.15219	-151.212	76.4693	18.7312	-107.973	71.1487	10.1809	-134.33	65.1498	5.38857	-163.985	105.355	-9.71334	-100.02	100.687	-24.0468	-121.867	100.028	-43.5129	-143.985	119.484	-18.2508	-81.2072	116.424	-33.3685	-102.971	112.753	-43.9282	-128.903	116.118	22.0094	-44.8443	122.053	31.0286	-13.9188	89.6213	41.7618	-31.7053	
